# Blender 3.4.1
# www.blender.org
mtllib l-blue.mtl
o Cube
v 1.000000 1.000000 -1.000000
v 1.000000 -1.000000 -1.000000
v 1.000000 1.000000 -0.107045
v 1.000000 -1.000000 1.000000
v -1.000000 1.000000 -1.000000
v -1.000000 -1.000000 -1.000000
v -1.000000 1.000000 -0.107045
v -1.000000 -1.000000 1.000000
v 1.000000 0.000043 -1.000000
v -1.000000 0.000043 -1.000000
v -1.000000 -0.448885 0.289472
v -1.000000 0.360484 -0.107045
v -1.000000 -0.062859 -0.602685
v -1.000000 -0.436094 0.273506
v -1.000000 -0.422509 0.257566
v -1.000000 -0.408154 0.241677
v -1.000000 -0.393051 0.225866
v -1.000000 -0.377224 0.210159
v -1.000000 -0.360700 0.194579
v -1.000000 -0.343505 0.179154
v -1.000000 -0.325666 0.163908
v -1.000000 -0.307214 0.148865
v -1.000000 -0.288178 0.134051
v -1.000000 -0.268588 0.119488
v -1.000000 -0.248477 0.105201
v -1.000000 -0.227876 0.091213
v -1.000000 -0.206821 0.077547
v -1.000000 -0.185344 0.064225
v -1.000000 -0.163481 0.051267
v -1.000000 -0.141266 0.038697
v -1.000000 -0.118737 0.026532
v -1.000000 -0.095929 0.014795
v -1.000000 -0.072880 0.003503
v -1.000000 -0.049626 -0.007325
v -1.000000 -0.026207 -0.017672
v -1.000000 -0.002659 -0.027521
v -1.000000 0.020980 -0.036855
v -1.000000 0.044670 -0.045660
v -1.000000 0.068373 -0.053922
v -1.000000 0.092052 -0.061627
v -1.000000 0.115666 -0.068762
v -1.000000 0.139180 -0.075316
v -1.000000 0.162553 -0.081278
v -1.000000 0.185748 -0.086639
v -1.000000 0.208728 -0.091390
v -1.000000 0.231456 -0.095523
v -1.000000 0.253893 -0.099032
v -1.000000 0.276005 -0.101910
v -1.000000 0.297755 -0.104154
v -1.000000 0.319108 -0.105760
v -1.000000 0.340029 -0.106724
v 1.000000 0.360484 -0.107045
v 1.000000 -0.448885 0.289472
v 1.000000 -0.062859 -0.602685
v 1.000000 0.340029 -0.106724
v 1.000000 0.319108 -0.105760
v 1.000000 0.297755 -0.104154
v 1.000000 0.276005 -0.101910
v 1.000000 0.253893 -0.099032
v 1.000000 0.231456 -0.095523
v 1.000000 0.208728 -0.091390
v 1.000000 0.185748 -0.086639
v 1.000000 0.162553 -0.081278
v 1.000000 0.139180 -0.075316
v 1.000000 0.115666 -0.068762
v 1.000000 0.092052 -0.061627
v 1.000000 0.068373 -0.053922
v 1.000000 0.044670 -0.045660
v 1.000000 0.020980 -0.036855
v 1.000000 -0.002659 -0.027521
v 1.000000 -0.026207 -0.017672
v 1.000000 -0.049626 -0.007325
v 1.000000 -0.072880 0.003503
v 1.000000 -0.095929 0.014795
v 1.000000 -0.118737 0.026532
v 1.000000 -0.141266 0.038697
v 1.000000 -0.163481 0.051267
v 1.000000 -0.185344 0.064225
v 1.000000 -0.206821 0.077547
v 1.000000 -0.227876 0.091213
v 1.000000 -0.248477 0.105201
v 1.000000 -0.268588 0.119488
v 1.000000 -0.288178 0.134051
v 1.000000 -0.307214 0.148865
v 1.000000 -0.325666 0.163908
v 1.000000 -0.343505 0.179154
v 1.000000 -0.360700 0.194579
v 1.000000 -0.377224 0.210159
v 1.000000 -0.393051 0.225866
v 1.000000 -0.408154 0.241677
v 1.000000 -0.422509 0.257566
v 1.000000 -0.436094 0.273506
vn -0.0000 1.0000 -0.0000
vn 1.0000 -0.0000 -0.0000
vn -0.0000 0.7902 0.6129
vn -0.0000 -1.0000 -0.0000
vn -0.0000 -0.0000 -1.0000
vn -0.0000 -0.0000 1.0000
vn -1.0000 -0.0000 -0.0000
vn -0.0000 0.0157 0.9999
vn -0.0000 0.0460 0.9989
vn -0.0000 0.0750 0.9972
vn -0.0000 0.1026 0.9947
vn -0.0000 0.1291 0.9916
vn -0.0000 0.1545 0.9880
vn -0.0000 0.1789 0.9839
vn -0.0000 0.2025 0.9793
vn -0.0000 0.2252 0.9743
vn -0.0000 0.2472 0.9690
vn -0.0000 0.2685 0.9633
vn -0.0000 0.2892 0.9573
vn -0.0000 0.3094 0.9509
vn -0.0000 0.3291 0.9443
vn -0.0000 0.3484 0.9373
vn -0.0000 0.3673 0.9301
vn -0.0000 0.3858 0.9226
vn -0.0000 0.4041 0.9147
vn -0.0000 0.4221 0.9065
vn -0.0000 0.4400 0.8980
vn -0.0000 0.4576 0.8892
vn -0.0000 0.4751 0.8799
vn -0.0000 0.4925 0.8703
vn -0.0000 0.5098 0.8603
vn -0.0000 0.5271 0.8498
vn -0.0000 0.5444 0.8388
vn -0.0000 0.5618 0.8273
vn -0.0000 0.5791 0.8152
vn -0.0000 0.5966 0.8025
vn -0.0000 0.6142 0.7892
vn -0.0000 0.6319 0.7751
vn -0.0000 0.6497 0.7602
vn -0.0000 0.6678 0.7444
vn -0.0000 0.6860 0.7276
vn -0.0000 0.7044 0.7098
vn -0.0000 0.7231 0.6907
vn -0.0000 0.7420 0.6704
vn -0.0000 0.7611 0.6486
vn -0.0000 0.7804 0.6252
vt 0.625000 0.500000
vt 0.375000 0.500000
vt 0.625000 0.750000
vt 0.375000 0.750000
vt 0.875000 0.500000
vt 0.625000 0.250000
vt 0.125000 0.500000
vt 0.375000 0.250000
vt 0.875000 0.750000
vt 0.625000 1.000000
vt 0.625000 0.000000
vt 0.375000 1.000000
vt 0.125000 0.750000
vt 0.375000 0.000000
vt 0.500005 0.500000
vt 0.500005 0.250000
vt 0.455231 0.000000
vt 0.455231 1.000000
vt 0.500005 0.021699
vt 0.554962 1.000000
vt 0.554962 0.000000
vt 0.500005 0.138764
vt 0.457095 -0.000076
vt 0.457057 1.000000
vt 0.459077 -0.000306
vt 0.458923 1.000000
vt 0.461174 -0.000692
vt 0.460828 1.000000
vt 0.463383 -0.001234
vt 0.462769 1.000000
vt 0.465702 -0.001934
vt 0.464742 1.000000
vt 0.468126 -0.002794
vt 0.466744 1.000000
vt 0.470652 -0.003813
vt 0.468772 1.000000
vt 0.473275 -0.004991
vt 0.470822 1.000000
vt 0.475993 -0.006327
vt 0.472892 1.000000
vt 0.478799 -0.007817
vt 0.474977 1.000000
vt 0.481690 -0.009458
vt 0.477075 1.000000
vt 0.484659 -0.011238
vt 0.479182 1.000000
vt 0.487701 -0.013145
vt 0.481295 1.000000
vt 0.490808 -0.015155
vt 0.483410 1.000000
vt 0.493971 -0.017235
vt 0.485524 1.000000
vt 0.497178 -0.019335
vt 0.487633 1.000000
vt 0.500418 -0.021387
vt 0.489734 1.000000
vt 0.503673 -0.023302
vt 0.491823 1.000000
vt 0.493898 0.000000
vt 0.493898 1.000000
vt 0.495955 0.000000
vt 0.507502 1.000000
vt 0.497990 0.000000
vt 0.510048 1.000000
vt 0.500000 0.000000
vt 0.512613 1.000000
vt 0.500005 0.000000
vt 0.515192 1.000000
vt 0.500005 0.000000
vt 0.517781 1.000000
vt 0.500005 0.000000
vt 0.520375 1.000000
vt 0.500005 0.000000
vt 0.522971 1.000000
vt 0.500005 0.000000
vt 0.525564 1.000000
vt 0.500005 0.000657
vt 0.528151 1.000000
vt 0.500005 0.003463
vt 0.530726 1.000000
vt 0.500005 0.006102
vt 0.533286 1.000000
vt 0.500005 0.008570
vt 0.535826 1.000000
vt 0.500005 0.010861
vt 0.538343 1.000000
vt 0.500005 0.012973
vt 0.540832 1.000000
vt 0.500005 0.014901
vt 0.543289 1.000000
vt 0.500005 0.016643
vt 0.545710 1.000000
vt 0.500005 0.018197
vt 0.548092 1.000000
vt 0.500005 0.019558
vt 0.550431 1.000000
vt 0.500005 0.020726
vt 0.552722 1.000000
vt 0.554962 0.750000
vt 0.466323 0.750000
vt 0.455231 0.750000
vt 0.500005 0.611236
vt 0.552722 0.750000
vt 0.550431 0.750000
vt 0.548092 0.750000
vt 0.545710 0.750000
vt 0.543289 0.750000
vt 0.540832 0.750000
vt 0.538343 0.750000
vt 0.535826 0.750000
vt 0.533286 0.750000
vt 0.530726 0.750000
vt 0.528151 0.750000
vt 0.525564 0.750000
vt 0.522971 0.750000
vt 0.520375 0.750000
vt 0.517781 0.750000
vt 0.515192 0.750000
vt 0.512613 0.750000
vt 0.510048 0.750000
vt 0.507502 0.750000
vt 0.504977 0.750000
vt 0.493898 0.750000
vt 0.502480 0.750000
vt 0.491823 0.750000
vt 0.500012 0.750000
vt 0.489734 0.750000
vt 0.497579 0.750000
vt 0.487633 0.750000
vt 0.495185 0.750000
vt 0.485524 0.750000
vt 0.492833 0.750000
vt 0.483410 0.750000
vt 0.490527 0.750000
vt 0.481295 0.750000
vt 0.488271 0.750000
vt 0.479182 0.750000
vt 0.486068 0.750000
vt 0.477075 0.750000
vt 0.483923 0.750000
vt 0.474977 0.750000
vt 0.481838 0.750000
vt 0.472892 0.750000
vt 0.479817 0.750000
vt 0.470822 0.750000
vt 0.477864 0.750000
vt 0.468772 0.750000
vt 0.475981 0.750000
vt 0.466744 0.750000
vt 0.474171 0.750000
vt 0.464742 0.750000
vt 0.472438 0.750000
vt 0.462769 0.750000
vt 0.470784 0.750000
vt 0.460828 0.750000
vt 0.469211 0.750000
vt 0.458923 0.750000
vt 0.467724 0.750000
vt 0.457057 0.750000
s 0
usemtl Material
f 1/1/1 5/5/1 7/9/1 3/3/1
f 2/2/2 9/15/2 54/102/2 53/101/2 4/4/2
f 4/4/3 53/101/3 11/18/3 8/12/3
f 6/7/4 2/2/4 4/4/4 8/13/4
f 10/16/5 5/6/5 1/1/5 9/15/5
f 6/8/5 10/16/5 9/15/5 2/2/5
f 9/15/2 1/1/2 3/3/2 52/99/2 54/102/2
f 52/99/6 3/3/6 7/10/6 12/20/6
f 8/14/7 11/17/7 13/22/7 10/16/7 6/8/7
f 11/17/7 14/23/7 13/22/7
f 14/23/7 15/25/7 13/22/7
f 15/25/7 16/27/7 13/22/7
f 16/27/7 17/29/7 13/22/7
f 17/29/7 18/31/7 13/22/7
f 18/31/7 19/33/7 13/22/7
f 19/33/7 20/35/7 13/22/7
f 20/35/7 21/37/7 13/22/7
f 21/37/7 22/39/7 13/22/7
f 22/39/7 23/41/7 13/22/7
f 23/41/7 24/43/7 13/22/7
f 24/43/7 25/45/7 13/22/7
f 25/45/7 26/47/7 13/22/7
f 26/47/7 27/49/7 13/22/7
f 27/49/7 28/51/7 13/22/7
f 28/51/7 29/53/7 13/22/7
f 29/53/7 30/55/7 13/22/7
f 30/55/7 31/57/7 13/22/7
f 31/57/7 32/59/7 13/22/7
f 32/59/7 33/61/7 13/22/7
f 33/61/7 34/63/7 13/22/7
f 34/63/7 35/65/7 13/22/7
f 35/65/7 36/67/7 13/22/7
f 36/67/7 37/69/7 13/22/7
f 37/69/7 38/71/7 13/22/7
f 38/71/7 39/73/7 13/22/7
f 39/73/7 40/75/7 13/22/7
f 40/75/7 41/77/7 13/22/7
f 41/77/7 42/79/7 13/22/7
f 42/79/7 43/81/7 13/22/7
f 43/81/7 44/83/7 13/22/7
f 44/83/7 45/85/7 13/22/7
f 45/85/7 46/87/7 13/22/7
f 46/87/7 47/89/7 13/22/7
f 47/89/7 48/91/7 13/22/7
f 48/91/7 49/93/7 13/22/7
f 49/93/7 50/95/7 13/22/7
f 50/95/7 51/97/7 13/22/7
f 51/97/7 12/19/7 13/22/7
f 52/99/2 55/103/2 54/102/2
f 55/103/2 56/104/2 54/102/2
f 56/104/2 57/105/2 54/102/2
f 57/105/2 58/106/2 54/102/2
f 58/106/2 59/107/2 54/102/2
f 59/107/2 60/108/2 54/102/2
f 60/108/2 61/109/2 54/102/2
f 61/109/2 62/110/2 54/102/2
f 62/110/2 63/111/2 54/102/2
f 63/111/2 64/112/2 54/102/2
f 64/112/2 65/113/2 54/102/2
f 65/113/2 66/114/2 54/102/2
f 66/114/2 67/115/2 54/102/2
f 67/115/2 68/116/2 54/102/2
f 68/116/2 69/117/2 54/102/2
f 69/117/2 70/118/2 54/102/2
f 70/118/2 71/119/2 54/102/2
f 71/119/2 72/120/2 54/102/2
f 72/120/2 73/121/2 54/102/2
f 73/121/2 74/122/2 54/102/2
f 74/122/2 75/124/2 54/102/2
f 75/124/2 76/126/2 54/102/2
f 76/126/2 77/128/2 54/102/2
f 77/128/2 78/130/2 54/102/2
f 78/130/2 79/132/2 54/102/2
f 79/132/2 80/134/2 54/102/2
f 80/134/2 81/136/2 54/102/2
f 81/136/2 82/138/2 54/102/2
f 82/138/2 83/140/2 54/102/2
f 83/140/2 84/142/2 54/102/2
f 84/142/2 85/144/2 54/102/2
f 85/144/2 86/146/2 54/102/2
f 86/146/2 87/148/2 54/102/2
f 87/148/2 88/150/2 54/102/2
f 88/150/2 89/152/2 54/102/2
f 89/152/2 90/154/2 54/102/2
f 90/154/2 91/156/2 54/102/2
f 91/156/2 92/158/2 54/102/2
f 92/158/2 53/100/2 54/102/2
f 52/99/8 12/20/8 51/98/8 55/103/8
f 55/103/9 51/98/9 50/96/9 56/104/9
f 56/104/10 50/96/10 49/94/10 57/105/10
f 57/105/11 49/94/11 48/92/11 58/106/11
f 58/106/12 48/92/12 47/90/12 59/107/12
f 59/107/13 47/90/13 46/88/13 60/108/13
f 60/108/14 46/88/14 45/86/14 61/109/14
f 61/109/15 45/86/15 44/84/15 62/110/15
f 62/110/16 44/84/16 43/82/16 63/111/16
f 63/111/17 43/82/17 42/80/17 64/112/17
f 64/112/18 42/80/18 41/78/18 65/113/18
f 65/113/19 41/78/19 40/76/19 66/114/19
f 66/114/20 40/76/20 39/74/20 67/115/20
f 67/115/21 39/74/21 38/72/21 68/116/21
f 68/116/22 38/72/22 37/70/22 69/117/22
f 69/117/23 37/70/23 36/68/23 70/118/23
f 70/118/24 36/68/24 35/66/24 71/119/24
f 71/119/25 35/66/25 34/64/25 72/120/25
f 72/120/26 34/64/26 33/62/26 73/121/26
f 73/121/27 33/62/27 32/60/27 74/123/27
f 74/123/28 32/60/28 31/58/28 75/125/28
f 75/125/29 31/58/29 30/56/29 76/127/29
f 76/127/30 30/56/30 29/54/30 77/129/30
f 77/129/31 29/54/31 28/52/31 78/131/31
f 78/131/32 28/52/32 27/50/32 79/133/32
f 79/133/33 27/50/33 26/48/33 80/135/33
f 80/135/34 26/48/34 25/46/34 81/137/34
f 81/137/35 25/46/35 24/44/35 82/139/35
f 82/139/36 24/44/36 23/42/36 83/141/36
f 83/141/37 23/42/37 22/40/37 84/143/37
f 84/143/38 22/40/38 21/38/38 85/145/38
f 85/145/39 21/38/39 20/36/39 86/147/39
f 86/147/40 20/36/40 19/34/40 87/149/40
f 87/149/41 19/34/41 18/32/41 88/151/41
f 88/151/42 18/32/42 17/30/42 89/153/42
f 89/153/43 17/30/43 16/28/43 90/155/43
f 90/155/44 16/28/44 15/26/44 91/157/44
f 91/157/45 15/26/45 14/24/45 92/159/45
f 92/159/46 14/24/46 11/18/46 53/101/46
f 13/22/7 12/21/7 7/11/7 5/6/7 10/16/7
