# Blender 3.4.1
# www.blender.org
mtllib chat.mtl
o Cube
v 7.301083 0.317596 -3.448119
v 7.301083 -0.317596 -3.448119
v 7.301083 0.317596 3.448119
v 7.301083 -0.317596 3.448119
v -7.301083 0.317596 -3.448119
v -7.301083 -0.317596 -3.448119
v -7.301083 0.317596 3.448119
v -7.301083 -0.317596 3.448119
v 1.002299 -0.317596 -3.448119
v 1.002299 0.317596 3.448119
v 1.002299 -0.317596 3.448119
v 1.002299 0.317596 -3.448119
v -0.966684 -0.317596 -3.448119
v -0.966684 0.317596 3.448119
v -0.966683 -0.317596 3.448119
v -0.966683 0.317596 -3.448119
v 0.017808 -0.317596 3.448119
v 0.017808 0.317596 -4.637239
v 0.017808 -0.317596 -4.637239
v 0.017808 0.317596 3.448119
vn -0.0000 1.0000 -0.0000
vn -0.0000 -0.0000 1.0000
vn -1.0000 -0.0000 -0.0000
vn -0.0000 -1.0000 -0.0000
vn 1.0000 -0.0000 -0.0000
vn -0.0000 -0.0000 -1.0000
vn 0.7703 -0.0000 -0.6377
vn -0.7703 -0.0000 -0.6377
vt 0.625000 0.500000
vt 0.375000 0.500000
vt 0.625000 0.750000
vt 0.375000 0.750000
vt 0.875000 0.500000
vt 0.625000 0.250000
vt 0.125000 0.500000
vt 0.375000 0.250000
vt 0.875000 0.750000
vt 0.625000 1.000000
vt 0.625000 0.000000
vt 0.375000 1.000000
vt 0.375000 0.000000
vt 0.125000 0.750000
vt 0.375000 0.392160
vt 0.267160 0.500000
vt 0.732840 0.750000
vt 0.625000 0.857840
vt 0.267160 0.750000
vt 0.375000 0.857840
vt 0.625000 0.392160
vt 0.732840 0.500000
vt 0.233450 0.500000
vt 0.375000 0.358450
vt 0.625000 0.891550
vt 0.766550 0.750000
vt 0.375000 0.891550
vt 0.233450 0.750000
vt 0.766550 0.500000
vt 0.625000 0.358450
vt 0.375000 0.874695
vt 0.250305 0.750000
vt 0.749695 0.500000
vt 0.625000 0.375305
vt 0.250305 0.500000
vt 0.375000 0.375305
vt 0.749695 0.750000
vt 0.625000 0.874695
s 0
usemtl Material
f 16/29/1 5/5/1 7/9/1 14/26/1
f 15/27/2 14/25/2 7/10/2 8/12/2
f 8/13/3 7/11/3 5/6/3 6/8/3
f 9/16/4 2/2/4 4/4/4 11/19/4
f 2/2/5 1/1/5 3/3/5 4/4/5
f 9/15/6 12/21/6 1/1/6 2/2/6
f 19/36/7 18/34/7 12/21/7 9/15/7
f 19/35/4 9/16/4 11/19/4 17/32/4
f 4/4/2 3/3/2 10/18/2 11/20/2
f 1/1/1 12/22/1 10/17/1 3/3/1
f 6/7/4 13/23/4 15/28/4 8/14/4
f 6/8/6 5/6/6 16/30/6 13/24/6
f 17/31/2 20/38/2 14/25/2 15/27/2
f 18/33/1 16/29/1 14/26/1 20/37/1
f 12/22/1 18/33/1 20/37/1 10/17/1
f 11/20/2 10/18/2 20/38/2 17/31/2
f 13/23/4 19/35/4 17/32/4 15/28/4
f 13/24/8 16/30/8 18/34/8 19/36/8
